<svg width="80" height="80" viewBox="0 0 80 80" fill="none" xmlns="http://www.w3.org/2000/svg">
<path d="M80 60V22.6667C79.9957 18.9867 77.0133 16.0043 73.3333 16H58.6667V0H56V18.424C55.2492 17.1685 54.3542 16.0052 53.3333 14.9573V0H50.6667V15.5107C50.6667 15.8735 50.8145 16.2207 51.076 16.472C54.2308 19.4753 56.0115 23.6442 56 28C56.008 36.8365 48.8512 44.0065 40.0145 44.0145C31.178 44.0225 24.008 36.8657 24 28.029C23.9933 20.6098 29.0878 14.1592 36.3067 12.4465C36.9082 12.3043 37.3332 11.7673 37.3333 11.1492V8H34.6667V10.1253C31.1652 11.1602 28.046 13.2033 25.6987 16H6.66667C2.98667 16.0043 0.00433333 18.9867 0 22.6667V60C0.00433333 63.68 2.98667 66.6623 6.66667 66.6667H28.5093L25.8427 72H1.33333C0.597 72 0 72.597 0 73.3333C0 80 7.02533 80 9.33333 80H70.6667C72.9747 80 80 80 80 73.3333C80 72.597 79.403 72 78.6667 72H54.1573L51.4907 66.6667H73.3333C77.0133 66.6623 79.9957 63.68 80 60ZM35.9358 46.2253C37.2703 46.521 38.6332 46.6692 40 46.6667C50.3045 46.6548 58.655 38.3045 58.6667 28V24H72V56H8V24H21.7747C19.5478 34.0478 25.888 43.9985 35.9358 46.2253ZM77.172 74.6667C76.7067 76.308 75.0973 77.3333 70.6667 77.3333H9.33333C4.90267 77.3333 3.29333 76.308 2.828 74.6667H77.172ZM28.824 72L31.4907 66.6667H48.5093L51.176 72H28.824ZM6.66667 64C4.4575 64 2.66667 62.2092 2.66667 60V22.6667C2.66667 20.4575 4.4575 18.6667 6.66667 18.6667H23.8347C23.3422 19.5205 22.9187 20.4122 22.568 21.3333H6.66667C5.93033 21.3333 5.33333 21.9303 5.33333 22.6667V57.3333C5.33333 58.0697 5.93033 58.6667 6.66667 58.6667H73.3333C74.0697 58.6667 74.6667 58.0697 74.6667 57.3333V22.6667C74.6667 21.9303 74.0697 21.3333 73.3333 21.3333H58.6667V18.6667H73.3333C75.5425 18.6667 77.3333 20.4575 77.3333 22.6667V60C77.3333 62.2092 75.5425 64 73.3333 64H6.66667Z" fill="#FED233"/>
</svg>
